<svg width="160" height="144" fill="none" xmlns="http://www.w3.org/2000/svg">
  <g clip-path="url(#a)">
    <path
      d="M104.53 47.698A59.264 59.264 0 0 0 89.544 43a43.809 43.809 0 0 0-1.92 3.976c-5.587-.838-11.123-.838-16.607 0A42.492 42.492 0 0 0 69.075 43a59.065 59.065 0 0 0-14.997 4.71c-9.484 14.296-12.055 28.238-10.77 41.982 6.29 4.686 12.386 7.532 18.38 9.395a45.578 45.578 0 0 0 3.936-6.467 38.733 38.733 0 0 1-6.199-3.01 30.85 30.85 0 0 0 1.52-1.199c11.951 5.577 24.937 5.577 36.746 0 .497.413 1.006.815 1.52 1.2A38.654 38.654 0 0 1 93 92.625a45.376 45.376 0 0 0 3.936 6.467c5.999-1.863 12.1-4.71 18.39-9.401 1.509-15.933-2.576-29.746-10.797-41.994ZM67.252 81.239c-3.588 0-6.53-3.341-6.53-7.41s2.88-7.416 6.53-7.416c3.65 0 6.593 3.341 6.53 7.416.006 4.069-2.88 7.41-6.53 7.41Zm24.132 0c-3.588 0-6.53-3.341-6.53-7.41s2.88-7.416 6.53-7.416c3.65 0 6.593 3.341 6.53 7.416 0 4.069-2.88 7.41-6.53 7.41Z"
      fill="#fff" />
  </g>
  <defs>
    <clipPath id="a">
      <path fill="#fff" transform="translate(43 43)" d="M0 0h72.636v56.093H0z" />
    </clipPath>
  </defs>
</svg>
