<svg width="160" height="144" fill="none" xmlns="http://www.w3.org/2000/svg">
  <g clip-path="url(#a)">
    <circle opacity=".2" cx="80" cy="72" r="66" stroke="#fff" />
    <circle opacity=".1" cx="80" cy="72" r="34" stroke="#fff" />
    <rect opacity=".2" x="14" y="6" width="132" height="132" rx="20" stroke="#fff" />
    <rect opacity=".1" x="46" y="38" width="68" height="68" rx="16" stroke="#fff" />
    <rect opacity=".2" x="29" y="21" width="102" height="102" rx="16" stroke="#fff" />
    <path opacity=".2" d="M14 71h132M80 5v132M139.332 11.668l-120 120M20.668 11.668l120 120" stroke="#fff" />
    <g clip-path="url(#b)">
      <path d="M80.64 72.956a7.986 7.986 0 1 1 15.973 0 7.986 7.986 0 0 1-15.972 0Z" fill="#1ABCFE" />
      <path d="M64.666 88.933a7.986 7.986 0 0 1 7.986-7.986h7.986v7.986a7.986 7.986 0 0 1-15.972 0Z" fill="#0ACF83" />
      <path d="M80.64 49v15.972h7.987a7.986 7.986 0 1 0 0-15.972H80.64Z" fill="#FF7262" />
      <path d="M64.666 56.986a7.986 7.986 0 0 0 7.986 7.986h7.986V49h-7.986a7.986 7.986 0 0 0-7.986 7.986Z"
        fill="#F24E1E" />
      <path d="M64.666 72.956a7.986 7.986 0 0 0 7.986 7.986h7.986V64.97h-7.986a7.986 7.986 0 0 0-7.986 7.986Z"
        fill="#A259FF" />
    </g>
  </g>
  <defs>
    <clipPath id="a">
      <path fill="#fff" transform="translate(14 5)" d="M0 0h132v133H0z" />
    </clipPath>
    <clipPath id="b">
      <path fill="#fff" transform="translate(64.666 49)" d="M0 0h31.944v47.917H0z" />
    </clipPath>
  </defs>
</svg>
