<svg width="160" height="144" fill="none" xmlns="http://www.w3.org/2000/svg">
  <g filter="url(#a)">
    <path d="M39 125a5 5 0 0 1 5-5h72a5 5 0 0 1 5 5v6a5 5 0 0 1-5 5H44a5 5 0 0 1-5-5v-6Z" fill="#fff"
      fill-opacity=".6" />
    <path
      d="M44 120.5h72a4.5 4.5 0 0 1 4.5 4.5v6a4.5 4.5 0 0 1-4.5 4.5H44a4.5 4.5 0 0 1-4.5-4.5v-6a4.5 4.5 0 0 1 4.5-4.5Z"
      stroke="#fff" stroke-opacity=".1" />
  </g>
  <rect x="55" y="124" width="8" height="8" rx="2" fill="#FACC15" />
  <rect x="69" y="124" width="8" height="8" rx="2" fill="#2DD4BF" />
  <rect x="83" y="124" width="8" height="8" rx="2" fill="#63E7F1" />
  <rect x="97" y="124" width="8" height="8" rx="2" fill="#93C5FD" />
  <g clip-path="url(#b)">
    <g filter="url(#c)">
      <path d="M2 16a8 8 0 0 1 8-8h140a8 8 0 0 1 8 8v72a8 8 0 0 1-8 8H10a8 8 0 0 1-8-8V16Z" fill="#0F172A" />
    </g>
    <path fill-rule="evenodd" clip-rule="evenodd"
      d="M12 8h1v69h-1V8Zm17 0h1v69h-1V8Zm18 0h-1v69h1V8Zm16 0h1v69h-1V8Zm18 0h-1v69h1V8Zm16 0h1v69h-1V8Zm18 0h-1v69h1V8Zm16 0h1v69h-1V8Zm18 0h-1v69h1V8Z"
      fill="#1E293B" />
    <path fill-rule="evenodd" clip-rule="evenodd"
      d="M158 18H2v1h156v-1Zm0 17H2v1h156v-1ZM2 52h156v1H2v-1Zm156 17H2v1h156v-1Z" fill="#1E293B" />
    <rect x="40" y="85" width="80" height="2" rx="1" fill="#1E293B" />
    <path fill-rule="evenodd" clip-rule="evenodd"
      d="M78 88a2 2 0 1 0 0-4 2 2 0 0 0 0 4Zm-37-3a1 1 0 1 0 0 2h32a1 1 0 1 0 0-2H41Z" fill="#94A3B8" />
    <path
      d="m90.005 60.172 1.096-13.589c.127-1.583 2.415-2.163 3.469-.88l9.055 11.035c1.067 1.3-.308 3.066-2.059 2.643l-4.054-.98c-.748-.18-1.545.055-2.021.597l-2.054 2.34c-1.165 1.328-3.567.512-3.431-1.166Z"
      fill="#3B82F6" />
    <path d="M98 44v-5a4 4 0 0 0-4-4H67a4 4 0 0 0-4 4v10a4 4 0 0 0 4 4h13.5" stroke="#94A3B8" stroke-width="2" />
  </g>
  <defs>
    <filter id="a" x="29" y="110" width="102" height="36" filterUnits="userSpaceOnUse"
      color-interpolation-filters="sRGB">
      <feFlood flood-opacity="0" result="BackgroundImageFix" />
      <feGaussianBlur in="BackgroundImage" stdDeviation="5" />
      <feComposite in2="SourceAlpha" operator="in" result="effect1_backgroundBlur_33_1225" />
      <feBlend in="SourceGraphic" in2="effect1_backgroundBlur_33_1225" result="shape" />
    </filter>
    <filter id="c" x="-13" y="1" width="186" height="118" filterUnits="userSpaceOnUse"
      color-interpolation-filters="sRGB">
      <feFlood flood-opacity="0" result="BackgroundImageFix" />
      <feColorMatrix in="SourceAlpha" values="0 0 0 0 0 0 0 0 0 0 0 0 0 0 0 0 0 0 127 0" result="hardAlpha" />
      <feOffset dy="3" />
      <feGaussianBlur stdDeviation="3" />
      <feColorMatrix values="0 0 0 0 0 0 0 0 0 0 0 0 0 0 0 0 0 0 0.05 0" />
      <feBlend in2="BackgroundImageFix" result="effect1_dropShadow_33_1225" />
      <feColorMatrix in="SourceAlpha" values="0 0 0 0 0 0 0 0 0 0 0 0 0 0 0 0 0 0 127 0" result="hardAlpha" />
      <feOffset dy="8" />
      <feGaussianBlur stdDeviation="7.5" />
      <feColorMatrix values="0 0 0 0 0 0 0 0 0 0 0 0 0 0 0 0 0 0 0.1 0" />
      <feBlend in2="effect1_dropShadow_33_1225" result="effect2_dropShadow_33_1225" />
      <feBlend in="SourceGraphic" in2="effect2_dropShadow_33_1225" result="shape" />
    </filter>
    <clipPath id="b">
      <path fill="#fff" transform="translate(2 8)" d="M0 0h156v88H0z" />
    </clipPath>
  </defs>
</svg>
