<svg width="200" height="108" fill="none" xmlns="http://www.w3.org/2000/svg">
  <g clip-path="url(#a)">
    <rect width="200" height="108" rx="4" fill="#F4F4F5" />
    <path d="M0 0h200v16H0V0Z" fill="#505050" />
    <g filter="url(#b)">
      <path d="M0 16h32v92H0V16Z" fill="#fff" />
    </g>
    <g filter="url(#c)">
      <path d="M56 28h88v68H56V28Z" fill="#fff" />
    </g>
    <path
      d="M60 29h1v66h-1V29ZM64 29h1v66h-1V29ZM68 29h1v66h-1V29ZM72 29h1v66h-1V29ZM76 29h1v66h-1V29ZM80 29h1v66h-1V29ZM84 29h1v66h-1V29ZM88 29h1v66h-1V29ZM92 29h1v66h-1V29ZM96 29h1v66h-1V29ZM100 29h1v66h-1V29ZM104 29h1v66h-1V29ZM108 29h1v66h-1V29ZM112 29h1v66h-1V29ZM116 29h1v66h-1V29ZM120 29h1v66h-1V29ZM124 29h1v66h-1V29ZM128 29h1v66h-1V29ZM132 29h1v66h-1V29ZM136 29h1v66h-1V29ZM140 29h1v66h-1V29Z"
      fill="#505050" fill-opacity=".04" />
    <path
      d="M56 41v-1h87v1H56ZM56 49v-1h87v1H56ZM56 57v-1h87v1H56ZM56 65v-1h87v1H56ZM56 73v-1h87v1H56ZM56 81v-1h87v1H56ZM56 89v-1h87v1H56ZM56 37v-1h87v1H56ZM56 33v-1h87v1H56ZM56 45v-1h87v1H56ZM56 53v-1h87v1H56ZM56 61v-1h87v1H56ZM56 69v-1h87v1H56ZM56 77v-1h87v1H56ZM56 85v-1h87v1H56ZM56 93v-1h87v1H56Z"
      fill="#505050" fill-opacity=".04" />
    <path
      d="M6 23a1 1 0 0 1 1-1h18a1 1 0 0 1 1 1v1a1 1 0 0 1-1 1H7a1 1 0 0 1-1-1v-1ZM6 29a1 1 0 0 1 1-1h6a1 1 0 0 1 1 1v1a1 1 0 0 1-1 1H7a1 1 0 0 1-1-1v-1ZM6 35a1 1 0 0 1 1-1h8a1 1 0 0 1 1 1v1a1 1 0 0 1-1 1H7a1 1 0 0 1-1-1v-1Z"
      fill="#ADADAD" />
    <path
      d="M6 67a1 1 0 0 1 1-1h18a1 1 0 0 1 1 1v1a1 1 0 0 1-1 1H7a1 1 0 0 1-1-1v-1ZM6 73a1 1 0 0 1 1-1h18a1 1 0 0 1 1 1v1a1 1 0 0 1-1 1H7a1 1 0 0 1-1-1v-1ZM6 79a1 1 0 0 1 1-1h18a1 1 0 0 1 1 1v1a1 1 0 0 1-1 1H7a1 1 0 0 1-1-1v-1ZM6 85a1 1 0 0 1 1-1h18a1 1 0 0 1 1 1v1a1 1 0 0 1-1 1H7a1 1 0 0 1-1-1v-1Z"
      fill="#ADADAD" fill-opacity=".2" />
    <path d="M6 91a1 1 0 0 1 1-1h18a1 1 0 0 1 1 1v1a1 1 0 0 1-1 1H7a1 1 0 0 1-1-1v-1Z" fill="#D5EDFF" />
    <path d="M6 97a1 1 0 0 1 1-1h18a1 1 0 0 1 1 1v1a1 1 0 0 1-1 1H7a1 1 0 0 1-1-1v-1Z" fill="#ADADAD"
      fill-opacity=".2" />
    <g filter="url(#d)">
      <path d="M168 16h32v92h-32V16Z" fill="#fff" />
    </g>
    <path
      d="M174 25a1 1 0 0 1 1-1h18a1 1 0 0 1 1 1v1a1 1 0 0 1-1 1h-18a1 1 0 0 1-1-1v-1ZM174 31a1 1 0 0 1 1-1h18a1 1 0 0 1 1 1v1a1 1 0 0 1-1 1h-18a1 1 0 0 1-1-1v-1ZM174 37a1 1 0 0 1 1-1h18a1 1 0 0 1 1 1v1a1 1 0 0 1-1 1h-18a1 1 0 0 1-1-1v-1Z"
      fill="#ADADAD" fill-opacity=".2" />
    <path d="M100.5 79C96 79 96 76 96 76h9s0 3-4.5 3Z" fill="#9ABAFF" stroke="#9ABAFF" stroke-width="2"
      stroke-linejoin="round" />
    <path
      d="M85 57.5c0-8.56 6.94-15.5 15.5-15.5 8.56 0 15.5 6.94 15.5 15.5v5.901c0 1.048.273 2.077.793 2.987l1.497 2.62c.762 1.333-.201 2.992-1.736 2.992H84.446c-1.535 0-2.498-1.659-1.736-2.992l1.497-2.62A6.02 6.02 0 0 0 85 63.4V57.5Z"
      fill="#2563EB" stroke="#2563EB" stroke-width="2" />
    <path fill="red" fill-opacity=".1" d="M56 40h87v1H56z" />
    <path d="M80 95V29h1v66h-1ZM120 95V29h1v66h-1Z" fill="red" fill-opacity=".1" />
    <path fill="red" fill-opacity=".1" d="M56 80h87v1H56z" />
  </g>
  <defs>
    <filter id="b" x="-15" y="9" width="62" height="122" filterUnits="userSpaceOnUse"
      color-interpolation-filters="sRGB">
      <feFlood flood-opacity="0" result="BackgroundImageFix" />
      <feColorMatrix in="SourceAlpha" values="0 0 0 0 0 0 0 0 0 0 0 0 0 0 0 0 0 0 127 0" result="hardAlpha" />
      <feOffset dy="3" />
      <feGaussianBlur stdDeviation="3" />
      <feColorMatrix values="0 0 0 0 0 0 0 0 0 0 0 0 0 0 0 0 0 0 0.05 0" />
      <feBlend in2="BackgroundImageFix" result="effect1_dropShadow_41_6233" />
      <feColorMatrix in="SourceAlpha" values="0 0 0 0 0 0 0 0 0 0 0 0 0 0 0 0 0 0 127 0" result="hardAlpha" />
      <feOffset dy="8" />
      <feGaussianBlur stdDeviation="7.5" />
      <feColorMatrix values="0 0 0 0 0 0 0 0 0 0 0 0 0 0 0 0 0 0 0.1 0" />
      <feBlend in2="effect1_dropShadow_41_6233" result="effect2_dropShadow_41_6233" />
      <feBlend in="SourceGraphic" in2="effect2_dropShadow_41_6233" result="shape" />
    </filter>
    <filter id="c" x="41" y="21" width="118" height="98" filterUnits="userSpaceOnUse"
      color-interpolation-filters="sRGB">
      <feFlood flood-opacity="0" result="BackgroundImageFix" />
      <feColorMatrix in="SourceAlpha" values="0 0 0 0 0 0 0 0 0 0 0 0 0 0 0 0 0 0 127 0" result="hardAlpha" />
      <feOffset dy="3" />
      <feGaussianBlur stdDeviation="3" />
      <feColorMatrix values="0 0 0 0 0 0 0 0 0 0 0 0 0 0 0 0 0 0 0.05 0" />
      <feBlend in2="BackgroundImageFix" result="effect1_dropShadow_41_6233" />
      <feColorMatrix in="SourceAlpha" values="0 0 0 0 0 0 0 0 0 0 0 0 0 0 0 0 0 0 127 0" result="hardAlpha" />
      <feOffset dy="8" />
      <feGaussianBlur stdDeviation="7.5" />
      <feColorMatrix values="0 0 0 0 0 0 0 0 0 0 0 0 0 0 0 0 0 0 0.1 0" />
      <feBlend in2="effect1_dropShadow_41_6233" result="effect2_dropShadow_41_6233" />
      <feBlend in="SourceGraphic" in2="effect2_dropShadow_41_6233" result="shape" />
    </filter>
    <filter id="d" x="153" y="9" width="62" height="122" filterUnits="userSpaceOnUse"
      color-interpolation-filters="sRGB">
      <feFlood flood-opacity="0" result="BackgroundImageFix" />
      <feColorMatrix in="SourceAlpha" values="0 0 0 0 0 0 0 0 0 0 0 0 0 0 0 0 0 0 127 0" result="hardAlpha" />
      <feOffset dy="3" />
      <feGaussianBlur stdDeviation="3" />
      <feColorMatrix values="0 0 0 0 0 0 0 0 0 0 0 0 0 0 0 0 0 0 0.05 0" />
      <feBlend in2="BackgroundImageFix" result="effect1_dropShadow_41_6233" />
      <feColorMatrix in="SourceAlpha" values="0 0 0 0 0 0 0 0 0 0 0 0 0 0 0 0 0 0 127 0" result="hardAlpha" />
      <feOffset dy="8" />
      <feGaussianBlur stdDeviation="7.5" />
      <feColorMatrix values="0 0 0 0 0 0 0 0 0 0 0 0 0 0 0 0 0 0 0.1 0" />
      <feBlend in2="effect1_dropShadow_41_6233" result="effect2_dropShadow_41_6233" />
      <feBlend in="SourceGraphic" in2="effect2_dropShadow_41_6233" result="shape" />
    </filter>
    <clipPath id="a">
      <path fill="#fff" d="M0 0h200v108H0z" />
    </clipPath>
  </defs>
</svg>
