<svg width="200" height="108" fill="none" xmlns="http://www.w3.org/2000/svg">
  <g clip-path="url(#a)">
    <path fill="#F4F4F5" d="M0 0h200v108H0z" />
    <path d="M0 0h200v16H0V0Z" fill="#505050" />
    <g filter="url(#b)">
      <path d="M0 16h32v92H0V16Z" fill="#fff" />
    </g>
    <g filter="url(#c)">
      <path d="M60 30a2 2 0 0 1 2-2h108a2 2 0 0 1 2 2v64a2 2 0 0 1-2 2H62a2 2 0 0 1-2-2V30Z" fill="#fff" />
    </g>
    <path
      d="M64 29h1v66h-1V29ZM68 29h1v66h-1V29ZM72 29h1v66h-1V29ZM76 29h1v66h-1V29ZM80 29h1v66h-1V29ZM84 29h1v66h-1V29ZM88 29h1v66h-1V29ZM92 29h1v66h-1V29ZM96 29h1v66h-1V29ZM100 29h1v66h-1V29ZM104 29h1v66h-1V29ZM108 29h1v66h-1V29ZM112 29h1v66h-1V29ZM116 29h1v66h-1V29ZM120 29h1v66h-1V29ZM124 29h1v66h-1V29ZM128 29h1v66h-1V29ZM132 29h1v66h-1V29ZM136 29h1v66h-1V29ZM140 29h1v66h-1V29ZM144 29h1v66h-1V29ZM148 29h1v66h-1V29ZM152 29h1v66h-1V29ZM156 29h1v66h-1V29ZM160 29h1v66h-1V29ZM164 29h1v66h-1V29ZM168 29h1v66h-1V29Z"
      fill="#505050" fill-opacity=".04" />
    <path
      d="M61 33v-1h110v1H61ZM61 41v-1h110v1H61ZM61 49v-1h110v1H61ZM61 57v-1h110v1H61ZM61 65v-1h110v1H61ZM61 73v-1h110v1H61ZM61 81v-1h110v1H61ZM61 89v-1h110v1H61ZM61 37v-1h110v1H61ZM61 45v-1h110v1H61ZM61 53v-1h110v1H61ZM61 61v-1h110v1H61ZM61 69v-1h110v1H61ZM61 77v-1h110v1H61ZM61 85v-1h110v1H61ZM61 93v-1h110v1H61Z"
      fill="#505050" fill-opacity=".04" />
    <path
      d="M6 23a1 1 0 0 1 1-1h18a1 1 0 0 1 1 1v1a1 1 0 0 1-1 1H7a1 1 0 0 1-1-1v-1ZM6 29a1 1 0 0 1 1-1h6a1 1 0 0 1 1 1v1a1 1 0 0 1-1 1H7a1 1 0 0 1-1-1v-1ZM6 35a1 1 0 0 1 1-1h8a1 1 0 0 1 1 1v1a1 1 0 0 1-1 1H7a1 1 0 0 1-1-1v-1Z"
      fill="#ADADAD" />
    <path
      d="M6 67a1 1 0 0 1 1-1h18a1 1 0 0 1 1 1v1a1 1 0 0 1-1 1H7a1 1 0 0 1-1-1v-1ZM6 73a1 1 0 0 1 1-1h18a1 1 0 0 1 1 1v1a1 1 0 0 1-1 1H7a1 1 0 0 1-1-1v-1ZM6 79a1 1 0 0 1 1-1h18a1 1 0 0 1 1 1v1a1 1 0 0 1-1 1H7a1 1 0 0 1-1-1v-1ZM6 85a1 1 0 0 1 1-1h18a1 1 0 0 1 1 1v1a1 1 0 0 1-1 1H7a1 1 0 0 1-1-1v-1Z"
      fill="#ADADAD" fill-opacity=".2" />
    <path d="M6 91a1 1 0 0 1 1-1h18a1 1 0 0 1 1 1v1a1 1 0 0 1-1 1H7a1 1 0 0 1-1-1v-1Z" fill="#D5EDFF" />
    <path d="M6 97a1 1 0 0 1 1-1h18a1 1 0 0 1 1 1v1a1 1 0 0 1-1 1H7a1 1 0 0 1-1-1v-1Z" fill="#ADADAD"
      fill-opacity=".2" />
  </g>
  <defs>
    <filter id="b" x="-15" y="9" width="62" height="122" filterUnits="userSpaceOnUse"
      color-interpolation-filters="sRGB">
      <feFlood flood-opacity="0" result="BackgroundImageFix" />
      <feColorMatrix in="SourceAlpha" values="0 0 0 0 0 0 0 0 0 0 0 0 0 0 0 0 0 0 127 0" result="hardAlpha" />
      <feOffset dy="3" />
      <feGaussianBlur stdDeviation="3" />
      <feColorMatrix values="0 0 0 0 0 0 0 0 0 0 0 0 0 0 0 0 0 0 0.05 0" />
      <feBlend in2="BackgroundImageFix" result="effect1_dropShadow_41_6103" />
      <feColorMatrix in="SourceAlpha" values="0 0 0 0 0 0 0 0 0 0 0 0 0 0 0 0 0 0 127 0" result="hardAlpha" />
      <feOffset dy="8" />
      <feGaussianBlur stdDeviation="7.5" />
      <feColorMatrix values="0 0 0 0 0 0 0 0 0 0 0 0 0 0 0 0 0 0 0.1 0" />
      <feBlend in2="effect1_dropShadow_41_6103" result="effect2_dropShadow_41_6103" />
      <feBlend in="SourceGraphic" in2="effect2_dropShadow_41_6103" result="shape" />
    </filter>
    <filter id="c" x="45" y="21" width="142" height="98" filterUnits="userSpaceOnUse"
      color-interpolation-filters="sRGB">
      <feFlood flood-opacity="0" result="BackgroundImageFix" />
      <feColorMatrix in="SourceAlpha" values="0 0 0 0 0 0 0 0 0 0 0 0 0 0 0 0 0 0 127 0" result="hardAlpha" />
      <feOffset dy="3" />
      <feGaussianBlur stdDeviation="3" />
      <feColorMatrix values="0 0 0 0 0 0 0 0 0 0 0 0 0 0 0 0 0 0 0.05 0" />
      <feBlend in2="BackgroundImageFix" result="effect1_dropShadow_41_6103" />
      <feColorMatrix in="SourceAlpha" values="0 0 0 0 0 0 0 0 0 0 0 0 0 0 0 0 0 0 127 0" result="hardAlpha" />
      <feOffset dy="8" />
      <feGaussianBlur stdDeviation="7.5" />
      <feColorMatrix values="0 0 0 0 0 0 0 0 0 0 0 0 0 0 0 0 0 0 0.1 0" />
      <feBlend in2="effect1_dropShadow_41_6103" result="effect2_dropShadow_41_6103" />
      <feBlend in="SourceGraphic" in2="effect2_dropShadow_41_6103" result="shape" />
    </filter>
    <clipPath id="a">
      <path fill="#fff" d="M0 0h200v108H0z" />
    </clipPath>
  </defs>
</svg>
